1.9Hzhigh3min_grf.mot
version=1
nRows=25
nColumns 19
inDegrees=yes
endheader
time	1_ground_force_vx	1_ground_force_vy	1_ground_force_vz	1_ground_force_px	1_ground_force_py	1_ground_force_pz	1_ground_torque_x	1_ground_torque_y	1_ground_torque_z	2_ground_force_vx	2_ground_force_vy	2_ground_force_vz	2_ground_force_px	2_ground_force_py	2_ground_force_pz	2_ground_torque_x	2_ground_torque_y	2_ground_torque_z
            1.253500	            0.138619	           -0.362274	            0.410816	           -0.233013	            0.005581	           -0.255695	            0.076338	           -0.082776	           -0.069860	            0.329093	           -0.365606	           -0.423807	           -0.232311	            0.006130	           -0.833667	           -0.131216	           -0.076164	            0.018636
            1.254000	            0.046981	           -0.001957	            0.458445	           -0.233013	            0.005581	           -0.255695	            0.092863	           -0.064245	           -0.092542	            0.377437	           -0.735073	           -0.049716	           -0.232311	            0.006130	           -0.833667	           -0.093706	           -0.057190	            0.037538
            1.254500	            0.367622	            0.178764	            0.366710	           -0.233013	            0.005581	           -0.255695	            0.115224	           -0.026720	           -0.172750	           -0.142064	            0.369295	           -0.420979	           -0.232311	            0.006130	           -0.833667	           -0.074740	           -0.113636	           -0.019223
            1.255000	            0.505199	            0.539125	            0.413771	           -0.233013	            0.005581	           -0.255695	            0.131772	            0.001159	           -0.185619	            0.141050	           -0.182302	           -0.376142	           -0.232311	            0.006130	           -0.833667	           -0.093697	           -0.057257	            0.056388
            1.255500	            0.459146	           -0.181357	            0.273225	           -0.233013	            0.005581	           -0.255695	            0.044466	            0.019200	           -0.093263	            0.094823	           -0.366285	           -0.470635	           -0.232311	            0.006130	           -0.833667	           -0.112473	           -0.066576	           -0.000188
            1.256000	            0.459371	            1.079717	            0.462059	           -0.233013	            0.005581	           -0.255695	            0.110990	           -0.101026	           -0.075190	           -0.046206	           -0.184150	           -0.047565	           -0.232311	            0.006130	           -0.833667	           -0.112610	           -0.028765	           -0.000053
            1.256500	            0.184379	            0.719132	            0.461196	           -0.233013	            0.005581	           -0.255695	            0.148509	           -0.128472	           -0.181107	           -0.092473	           -0.367798	           -0.235915	           -0.232311	            0.006130	           -0.833667	           -0.074946	           -0.047736	            0.056414
            1.257000	            0.230401	            0.358413	            0.505392	           -0.233013	            0.005581	           -0.255695	            0.052963	           -0.054601	           -0.159788	            0.094782	           -0.365950	           -0.564491	           -0.232311	            0.006130	           -0.833667	           -0.112532	           -0.056921	           -0.056705
            1.257500	            0.458996	            1.260572	            0.325264	           -0.233013	            0.005581	           -0.255695	            0.116600	           -0.100788	           -0.131604	            0.044692	            0.553953	           -0.373474	           -0.232311	            0.006130	           -0.833667	           -0.131421	           -0.019447	            0.018839
            1.258000	            0.229749	            1.440793	            0.326606	           -0.233013	            0.005581	           -0.255695	            0.078852	           -0.008386	           -0.159692	            0.093576	            0.001343	           -0.281608	           -0.232311	            0.006130	           -0.833667	           -0.112430	           -0.085280	           -0.056806
            1.258500	            0.459110	            1.260375	            0.371120	           -0.233013	            0.005581	           -0.255695	            0.077311	            0.028211	           -0.036963	            0.139741	            0.185827	           -0.327899	           -0.232311	            0.006130	           -0.833667	           -0.093824	           -0.028697	           -0.000061
            1.259000	            0.413758	           -0.182152	            0.456762	           -0.233013	            0.005581	           -0.255695	            0.074379	           -0.027349	           -0.020299	            0.095550	           -0.550935	           -0.330508	           -0.232311	            0.006130	           -0.833667	            0.056621	           -0.075351	           -0.019144
            1.259500	            0.597193	            0.718819	            0.551884	           -0.233013	            0.005581	           -0.255695	            0.125955	           -0.082228	           -0.125664	            0.193217	           -1.655319	           -0.381418	           -0.232311	            0.006130	           -0.833667	           -0.093595	           -0.085615	            0.056287
            1.260000	            0.276308	            1.259357	            0.600855	           -0.233013	            0.005581	           -0.255695	            0.030134	           -0.101524	            0.011173	            0.377917	           -0.917715	           -0.472726	           -0.232311	            0.006130	           -0.833667	           -0.037434	           -0.037946	           -0.000119
            1.260500	            0.321860	            0.358824	            0.413453	           -0.233013	            0.005581	           -0.255695	            0.132255	           -0.073518	           -0.043368	            0.001891	           -0.551608	           -0.236612	           -0.232311	            0.006130	           -0.833667	           -0.150188	           -0.038017	           -0.094322
            1.261000	            0.322120	            0.178165	            0.504392	           -0.233013	            0.005581	           -0.255695	            0.184523	            0.037820	           -0.137004	            0.142358	           -0.550431	           -0.424384	           -0.232311	            0.006130	           -0.833667	            0.037845	           -0.084670	           -0.075720
            1.261500	            0.642644	            1.620549	            0.463923	           -0.233013	            0.005581	           -0.255695	            0.072914	           -0.008192	           -0.142091	            0.138453	            0.553789	           -0.232729	           -0.232311	            0.006130	           -0.833667	           -0.112567	           -0.038285	            0.018763
            1.262000	            0.138341	            0.539251	            0.368825	           -0.233013	            0.005581	           -0.255695	            0.190238	            0.000597	           -0.107413	            0.002494	           -0.735254	           -0.378053	           -0.232311	            0.006130	           -0.833667	           -0.074826	           -0.085413	            0.018579
            1.262500	            0.229976	            1.440400	            0.418318	           -0.233013	            0.005581	           -0.255695	            0.075235	           -0.082814	           -0.047214	           -0.235661	            0.368120	           -0.186299	           -0.232311	            0.006130	           -0.833667	           -0.112218	           -0.132879	            0.037276
            1.263000	            0.230500	           -0.182384	            0.503073	           -0.233013	            0.005581	           -0.255695	            0.072279	           -0.110381	           -0.084863	            0.096338	           -0.736088	           -0.049596	           -0.232311	            0.006130	           -0.833667	           -0.074827	           -0.076229	            0.094013
            1.263500	            0.321354	            1.260742	            0.279750	           -0.233013	            0.005581	           -0.255695	            0.156272	           -0.101167	           -0.062376	            0.188544	           -0.366114	           -0.423747	           -0.232311	            0.006130	           -0.833667	           -0.055956	           -0.104385	            0.056204
            1.264000	            0.505166	            0.719391	            0.414544	           -0.233013	            0.005581	           -0.255695	            0.169582	           -0.045696	           -0.035535	            0.142400	           -0.550766	           -0.330528	           -0.232311	            0.006130	           -0.833667	           -0.093542	           -0.113570	           -0.056915
            1.264500	            0.229913	            0.539465	            0.322741	           -0.233013	            0.005581	           -0.255695	            0.135795	           -0.008455	           -0.141004	            0.190517	           -0.918391	           -0.472646	           -0.232311	            0.006130	           -0.833667	           -0.112719	           -0.009524	           -0.094237
            1.265000	            0.229766	            0.719927	            0.277658	           -0.233013	            0.005581	           -0.255695	            0.156586	            0.028198	           -0.065712	           -0.044253	           -0.736260	           -0.143393	           -0.232311	            0.006130	           -0.833667	           -0.112617	           -0.037882	           -0.094338
            1.265500	            0.230174	            0.358806	            0.413680	           -0.233013	            0.005581	           -0.255695	            0.188511	           -0.054981	           -0.066135	            0.328470	           -0.181793	           -0.329293	           -0.232311	            0.006130	           -0.833667	           -0.018503	           -0.084940	           -0.056846
